<?xml version="1.0" encoding="UTF-8" standalone="no"?>
<!-- Generator: Adobe Illustrator 16.0.0, SVG Export Plug-In . SVG Version: 6.00 Build 0)  -->

<svg
   xmlns:dc="http://purl.org/dc/elements/1.1/"
   xmlns:cc="http://creativecommons.org/ns#"
   xmlns:rdf="http://www.w3.org/1999/02/22-rdf-syntax-ns#"
   xmlns:svg="http://www.w3.org/2000/svg"
   xmlns="http://www.w3.org/2000/svg"
   xmlns:sodipodi="http://sodipodi.sourceforge.net/DTD/sodipodi-0.dtd"
   xmlns:inkscape="http://www.inkscape.org/namespaces/inkscape"
   version="1.1"
   id="Layer_1"
   x="0px"
   y="0px"
   width="24"
   height="24"
   viewBox="0 0 24 24"
   enable-background="new 0 0 128 128"
   xml:space="preserve"
   inkscape:version="0.91 r13725"
   sodipodi:docname="skarva-kipeltip.svg"><metadata
     id="metadata3686"><rdf:RDF><cc:Work
         rdf:about=""><dc:format>image/svg+xml</dc:format><dc:type
           rdf:resource="http://purl.org/dc/dcmitype/StillImage" /><dc:title></dc:title></cc:Work></rdf:RDF></metadata><defs
     id="defs3684" /><sodipodi:namedview
     pagecolor="#ffffff"
     bordercolor="#666666"
     borderopacity="1"
     objecttolerance="10"
     gridtolerance="10"
     guidetolerance="10"
     inkscape:pageopacity="0"
     inkscape:pageshadow="2"
     inkscape:window-width="3200"
     inkscape:window-height="1674"
     id="namedview3682"
     showgrid="false"
     borderlayer="false"
     inkscape:zoom="8"
     inkscape:cx="2.1812007"
     inkscape:cy="6.0850989"
     inkscape:window-x="0"
     inkscape:window-y="60"
     inkscape:window-maximized="1"
     inkscape:current-layer="Layer_1"
     fit-margin-top="0"
     fit-margin-left="0"
     fit-margin-right="0"
     fit-margin-bottom="0" /><g
     id="g3556"
     transform="matrix(0.1888485,0,0,0.1888485,-0.08630393,0.00811991)"><g
       id="g3558"><linearGradient
         id="SVGID_1_"
         gradientUnits="userSpaceOnUse"
         x1="64.000504"
         y1="112.3096"
         x2="64.000504"
         y2="125.5549"><stop
           offset="0.0059"
           style="stop-color:#FFFFFF"
           id="stop3561" /><stop
           offset="0.4192"
           style="stop-color:#1A1A1A"
           id="stop3563" /><stop
           offset="0.5918"
           style="stop-color:#666666"
           id="stop3565" /><stop
           offset="0.7903"
           style="stop-color:#B8B8B8"
           id="stop3567" /><stop
           offset="0.9312"
           style="stop-color:#EBEBEB"
           id="stop3569" /><stop
           offset="1"
           style="stop-color:#FFFFFF"
           id="stop3571" /></linearGradient><rect
         x="20.610001"
         y="112.174"
         width="86.779999"
         height="11.823"
         id="rect3573"
         style="opacity:0.6;fill:url(#SVGID_1_)" /><radialGradient
         id="SVGID_2_"
         cx="104.3535"
         cy="118.0713"
         r="15.5347"
         gradientTransform="matrix(1.1093,0,0,0.5758,-4.9365,50.9475)"
         gradientUnits="userSpaceOnUse"><stop
           offset="0"
           style="stop-color:#1A1A1A"
           id="stop3576" /><stop
           offset="0.0489"
           style="stop-color:#2E2E2E"
           id="stop3578" /><stop
           offset="0.1895"
           style="stop-color:#656565"
           id="stop3580" /><stop
           offset="0.3314"
           style="stop-color:#949494"
           id="stop3582" /><stop
           offset="0.4716"
           style="stop-color:#BBBBBB"
           id="stop3584" /><stop
           offset="0.6097"
           style="stop-color:#D8D8D8"
           id="stop3586" /><stop
           offset="0.7451"
           style="stop-color:#EEEEEE"
           id="stop3588" /><stop
           offset="0.8766"
           style="stop-color:#FBFBFB"
           id="stop3590" /><stop
           offset="1"
           style="stop-color:#FFFFFF"
           id="stop3592" /></radialGradient><rect
         x="107.391"
         y="109.55"
         width="20.152"
         height="14.447"
         id="rect3594"
         style="opacity:0.6;fill:url(#SVGID_2_)" /><radialGradient
         id="SVGID_3_"
         cx="23.571301"
         cy="118.0713"
         r="15.5366"
         gradientTransform="matrix(-1.1093,0,0,0.5758,43.3262,50.9475)"
         gradientUnits="userSpaceOnUse"><stop
           offset="0"
           style="stop-color:#1A1A1A"
           id="stop3597" /><stop
           offset="0.0489"
           style="stop-color:#2E2E2E"
           id="stop3599" /><stop
           offset="0.1895"
           style="stop-color:#656565"
           id="stop3601" /><stop
           offset="0.3314"
           style="stop-color:#949494"
           id="stop3603" /><stop
           offset="0.4716"
           style="stop-color:#BBBBBB"
           id="stop3605" /><stop
           offset="0.6097"
           style="stop-color:#D8D8D8"
           id="stop3607" /><stop
           offset="0.7451"
           style="stop-color:#EEEEEE"
           id="stop3609" /><stop
           offset="0.8766"
           style="stop-color:#FBFBFB"
           id="stop3611" /><stop
           offset="1"
           style="stop-color:#FFFFFF"
           id="stop3613" /></radialGradient><rect
         x="0.45699999"
         y="109.55"
         width="20.153"
         height="14.447"
         id="rect3615"
         style="opacity:0.6;fill:url(#SVGID_3_)" /></g><g
       id="g3617"><radialGradient
         id="SVGID_4_"
         cx="64"
         cy="61.483398"
         r="57.354599"
         gradientUnits="userSpaceOnUse"><stop
           offset="0"
           style="stop-color:#8FD0E3"
           id="stop3620" /><stop
           offset="0.4975"
           style="stop-color:#75C0DA"
           id="stop3622" /><stop
           offset="0.7505"
           style="stop-color:#65B7D5"
           id="stop3624" /><stop
           offset="1"
           style="stop-color:#3585BB"
           id="stop3626" /></radialGradient><path
         stroke-miterlimit="10"
         d="m 6.771,8.542 c 0,-2.507 2.032,-4.539 4.539,-4.539 l 105.38,0 c 2.506,0 4.538,2.032 4.538,4.539 l 0,105.884 c 0,2.507 -2.032,4.538 -4.538,4.538 l -105.379,0 c -2.507,0 -4.539,-2.031 -4.539,-4.538 l 0,-105.884 z"
         id="path3628"
         style="fill:url(#SVGID_4_);stroke:#4c4c4c;stroke-width:2;stroke-miterlimit:10"
         inkscape:connector-curvature="0" /></g><path
       stroke-miterlimit="10"
       d="m 8.229,9.89 c 0,-2.443 1.981,-4.422 4.423,-4.422 l 102.696,0 c 2.444,0 4.424,1.979 4.424,4.422 l 0,103.186 c 0,2.444 -1.979,4.426 -4.424,4.426 l -102.697,0 c -2.441,0 -4.423,-1.981 -4.423,-4.426 l 0,-103.186 z"
       id="path3630"
       inkscape:connector-curvature="0"
       style="fill:none;stroke:#3585bb;stroke-width:2;stroke-miterlimit:10" /><path
       stroke-miterlimit="10"
       d="m 8.905,10.514 c 0,-2.413 1.956,-4.368 4.369,-4.368 l 101.451,0 c 2.413,0 4.369,1.956 4.369,4.368 l 0,101.937 c 0,2.413 -1.956,4.37 -4.369,4.37 l -101.451,0 c -2.413,0 -4.369,-1.957 -4.369,-4.37 l 0,-101.937 z"
       id="path3632"
       inkscape:connector-curvature="0"
       style="fill:none;stroke:#8fd0e3;stroke-miterlimit:10" /><g
       id="g3634"><linearGradient
         id="SVGID_5_"
         gradientUnits="userSpaceOnUse"
         x1="35.320301"
         y1="36.661098"
         x2="94.902702"
         y2="36.965302"><stop
           offset="0"
           style="stop-color:#666666"
           id="stop3637" /><stop
           offset="0.0452"
           style="stop-color:#777777"
           id="stop3639" /><stop
           offset="0.131"
           style="stop-color:#919191"
           id="stop3641" /><stop
           offset="0.2192"
           style="stop-color:#A4A4A4"
           id="stop3643" /><stop
           offset="0.3106"
           style="stop-color:#AFAFAF"
           id="stop3645" /><stop
           offset="0.4098"
           style="stop-color:#B3B3B3"
           id="stop3647" /><stop
           offset="1"
           style="stop-color:#CCCCCC"
           id="stop3649" /></linearGradient><path
         d="m 54.59,62.994 -7.295,0 0,-32.375 c 0,-11.064 9,-20.064 20.064,-20.064 11.061,0 20.062,9 20.062,20.064 l 0,6.497 -7.297,0 0,-6.497 c 0,-7.041 -5.727,-12.769 -12.766,-12.769 -7.042,0 -12.77,5.728 -12.77,12.769 l 0,32.375 z"
         id="path3651"
         style="fill:url(#SVGID_5_)"
         inkscape:connector-curvature="0" /><linearGradient
         id="SVGID_6_"
         gradientUnits="userSpaceOnUse"
         x1="67.326202"
         y1="66.233398"
         x2="68.259102"
         y2="120.9018"><stop
           offset="0"
           style="stop-color:#F2F2F2"
           id="stop3654" /><stop
           offset="0.1875"
           style="stop-color:#CCCCCC"
           id="stop3656" /><stop
           offset="0.3953"
           style="stop-color:#A7A7A7"
           id="stop3658" /><stop
           offset="0.5056"
           style="stop-color:#999999"
           id="stop3660" /><stop
           offset="0.6642"
           style="stop-color:#969696"
           id="stop3662" /><stop
           offset="0.7889"
           style="stop-color:#8C8C8C"
           id="stop3664" /><stop
           offset="0.9015"
           style="stop-color:#7B7B7B"
           id="stop3666" /><stop
           offset="1"
           style="stop-color:#666666"
           id="stop3668" /></linearGradient><polygon
         points="40.489,94.812 40.489,41.261 94.228,41.447 94.228,94.998 70.344,108.897 "
         id="polygon3670"
         style="fill:url(#SVGID_6_)" /><polygon
         points="40.489,41.261 40.489,94.812 33.772,98.917 33.772,45.365 "
         id="polygon3672"
         style="fill:#b3b3b3" /><polygon
         points="40.489,94.812 70.344,108.897 63.229,112.413 33.772,98.917 "
         id="polygon3674"
         style="fill:#666666" /><path
         stroke-miterlimit="10"
         d="m 54.591,41.309 0,-10.692 c 0,-7.041 5.726,-12.767 12.769,-12.767 7.039,0 12.766,5.727 12.766,12.767 l 0,6.498 7.297,0 0,-6.498 c 0,-11.063 -9.002,-20.064 -20.062,-20.064 -11.063,0 -20.064,9.001 -20.064,20.064 l 0,10.667 -6.806,-0.023 -6.717,4.105 0,53.551 29.457,13.497 7.114,-3.516 23.884,-13.9 0,-53.552 -39.638,-0.137 z"
         id="path3676"
         inkscape:connector-curvature="0"
         style="fill:none;stroke:#666666;stroke-linecap:round;stroke-linejoin:round;stroke-miterlimit:10" /><path
         d="m 76.395,66.455 c 0,-2.938 -2.384,-5.322 -5.321,-5.322 -2.939,0 -5.323,2.385 -5.323,5.322 0,2.094 1.218,3.885 2.974,4.754 l 0,15.53 4.699,0 0,-15.53 c 1.754,-0.869 2.971,-2.66 2.971,-4.754 z"
         id="path3678"
         inkscape:connector-curvature="0"
         style="fill:#666666" /><path
         d="m 71.073,61.133 c -0.18,0 -0.347,0.037 -0.522,0.054 2.69,0.266 4.801,2.509 4.801,5.269 0,2.094 -1.217,3.885 -2.97,4.754 l 0,15.53 1.041,0 0,-15.53 c 1.755,-0.869 2.972,-2.66 2.972,-4.754 0,-2.938 -2.384,-5.323 -5.322,-5.323 z"
         id="path3680"
         inkscape:connector-curvature="0"
         style="fill:#b3b3b3" /></g></g></svg>