<?xml version="1.0" encoding="utf-8"?>
<!-- Generator: Adobe Illustrator 16.0.0, SVG Export Plug-In . SVG Version: 6.00 Build 0)  -->
<!DOCTYPE svg PUBLIC "-//W3C//DTD SVG 1.1//EN" "http://www.w3.org/Graphics/SVG/1.1/DTD/svg11.dtd">
<svg version="1.1" id="Layer_1" xmlns="http://www.w3.org/2000/svg" xmlns:xlink="http://www.w3.org/1999/xlink" x="0px" y="0px"
	 width="128px" height="128px" viewBox="0 0 128 128" enable-background="new 0 0 128 128" xml:space="preserve">
<g>
	<g>
		<linearGradient id="SVGID_1_" gradientUnits="userSpaceOnUse" x1="64.0005" y1="112.3096" x2="64.0005" y2="125.5549">
			<stop  offset="0.0059" style="stop-color:#FFFFFF"/>
			<stop  offset="0.4192" style="stop-color:#1A1A1A"/>
			<stop  offset="0.5918" style="stop-color:#666666"/>
			<stop  offset="0.7903" style="stop-color:#B8B8B8"/>
			<stop  offset="0.9312" style="stop-color:#EBEBEB"/>
			<stop  offset="1" style="stop-color:#FFFFFF"/>
		</linearGradient>
		<rect x="20.61" y="112.174" opacity="0.6" fill="url(#SVGID_1_)" width="86.78" height="11.823"/>
		
			<radialGradient id="SVGID_2_" cx="104.3535" cy="118.0713" r="15.5347" gradientTransform="matrix(1.1093 0 0 0.5758 -4.9365 50.9475)" gradientUnits="userSpaceOnUse">
			<stop  offset="0" style="stop-color:#1A1A1A"/>
			<stop  offset="0.0489" style="stop-color:#2E2E2E"/>
			<stop  offset="0.1895" style="stop-color:#656565"/>
			<stop  offset="0.3314" style="stop-color:#949494"/>
			<stop  offset="0.4716" style="stop-color:#BBBBBB"/>
			<stop  offset="0.6097" style="stop-color:#D8D8D8"/>
			<stop  offset="0.7451" style="stop-color:#EEEEEE"/>
			<stop  offset="0.8766" style="stop-color:#FBFBFB"/>
			<stop  offset="1" style="stop-color:#FFFFFF"/>
		</radialGradient>
		<rect x="107.391" y="109.55" opacity="0.6" fill="url(#SVGID_2_)" width="20.152" height="14.447"/>
		
			<radialGradient id="SVGID_3_" cx="23.5713" cy="118.0713" r="15.5366" gradientTransform="matrix(-1.1093 0 0 0.5758 43.3262 50.9475)" gradientUnits="userSpaceOnUse">
			<stop  offset="0" style="stop-color:#1A1A1A"/>
			<stop  offset="0.0489" style="stop-color:#2E2E2E"/>
			<stop  offset="0.1895" style="stop-color:#656565"/>
			<stop  offset="0.3314" style="stop-color:#949494"/>
			<stop  offset="0.4716" style="stop-color:#BBBBBB"/>
			<stop  offset="0.6097" style="stop-color:#D8D8D8"/>
			<stop  offset="0.7451" style="stop-color:#EEEEEE"/>
			<stop  offset="0.8766" style="stop-color:#FBFBFB"/>
			<stop  offset="1" style="stop-color:#FFFFFF"/>
		</radialGradient>
		<rect x="0.457" y="109.55" opacity="0.6" fill="url(#SVGID_3_)" width="20.153" height="14.447"/>
	</g>
	<g>
		<radialGradient id="SVGID_4_" cx="64" cy="61.4834" r="57.3546" gradientUnits="userSpaceOnUse">
			<stop  offset="0" style="stop-color:#8FD0E3"/>
			<stop  offset="0.4975" style="stop-color:#75C0DA"/>
			<stop  offset="0.7505" style="stop-color:#65B7D5"/>
			<stop  offset="1" style="stop-color:#3585BB"/>
		</radialGradient>
		<path fill="url(#SVGID_4_)" stroke="#4C4C4C" stroke-width="2" stroke-miterlimit="10" d="M6.771,8.542
			c0-2.507,2.032-4.539,4.539-4.539h105.38c2.506,0,4.538,2.032,4.538,4.539v105.884c0,2.507-2.032,4.538-4.538,4.538H11.311
			c-2.507,0-4.539-2.031-4.539-4.538V8.542z"/>
	</g>
	<path fill="none" stroke="#3585BB" stroke-width="2" stroke-miterlimit="10" d="M8.229,9.89c0-2.443,1.981-4.422,4.423-4.422
		h102.696c2.444,0,4.424,1.979,4.424,4.422v103.186c0,2.444-1.979,4.426-4.424,4.426H12.651c-2.441,0-4.423-1.981-4.423-4.426V9.89z
		"/>
	<path fill="none" stroke="#8FD0E3" stroke-miterlimit="10" d="M8.905,10.514c0-2.413,1.956-4.368,4.369-4.368h101.451
		c2.413,0,4.369,1.956,4.369,4.368v101.937c0,2.413-1.956,4.37-4.369,4.37H13.274c-2.413,0-4.369-1.957-4.369-4.37V10.514z"/>
	<g>
		<linearGradient id="SVGID_5_" gradientUnits="userSpaceOnUse" x1="35.3203" y1="36.6611" x2="94.9027" y2="36.9653">
			<stop  offset="0" style="stop-color:#666666"/>
			<stop  offset="0.0452" style="stop-color:#777777"/>
			<stop  offset="0.131" style="stop-color:#919191"/>
			<stop  offset="0.2192" style="stop-color:#A4A4A4"/>
			<stop  offset="0.3106" style="stop-color:#AFAFAF"/>
			<stop  offset="0.4098" style="stop-color:#B3B3B3"/>
			<stop  offset="1" style="stop-color:#CCCCCC"/>
		</linearGradient>
		<path fill="url(#SVGID_5_)" d="M54.59,62.994h-7.295V30.619c0-11.064,9-20.064,20.064-20.064c11.061,0,20.062,9,20.062,20.064
			v6.497h-7.297v-6.497c0-7.041-5.727-12.769-12.766-12.769c-7.042,0-12.77,5.728-12.77,12.769V62.994z"/>
		<linearGradient id="SVGID_6_" gradientUnits="userSpaceOnUse" x1="67.3262" y1="66.2334" x2="68.2591" y2="120.9018">
			<stop  offset="0" style="stop-color:#F2F2F2"/>
			<stop  offset="0.1875" style="stop-color:#CCCCCC"/>
			<stop  offset="0.3953" style="stop-color:#A7A7A7"/>
			<stop  offset="0.5056" style="stop-color:#999999"/>
			<stop  offset="0.6642" style="stop-color:#969696"/>
			<stop  offset="0.7889" style="stop-color:#8C8C8C"/>
			<stop  offset="0.9015" style="stop-color:#7B7B7B"/>
			<stop  offset="1" style="stop-color:#666666"/>
		</linearGradient>
		<polygon fill="url(#SVGID_6_)" points="94.228,94.998 70.344,108.897 40.489,94.812 40.489,41.261 94.228,41.447 		"/>
		<polygon fill="#B3B3B3" points="40.489,94.812 33.772,98.917 33.772,45.365 40.489,41.261 		"/>
		<polygon fill="#666666" points="70.344,108.897 63.229,112.413 33.772,98.917 40.489,94.812 		"/>
		<path fill="none" stroke="#666666" stroke-linecap="round" stroke-linejoin="round" stroke-miterlimit="10" d="M54.591,41.309
			V30.617c0-7.041,5.726-12.767,12.769-12.767c7.039,0,12.766,5.727,12.766,12.767v6.498h7.297v-6.498
			c0-11.063-9.002-20.064-20.062-20.064c-11.063,0-20.064,9.001-20.064,20.064v10.667l-6.806-0.023l-6.717,4.105v53.551
			l29.457,13.497l7.114-3.516l23.884-13.9V41.446L54.591,41.309z"/>
		<path fill="#666666" d="M76.395,66.455c0-2.938-2.384-5.322-5.321-5.322c-2.939,0-5.323,2.385-5.323,5.322
			c0,2.094,1.218,3.885,2.974,4.754v15.53h4.699v-15.53C75.178,70.34,76.395,68.549,76.395,66.455z"/>
		<path fill="#B3B3B3" d="M71.073,61.133c-0.18,0-0.347,0.037-0.522,0.054c2.69,0.266,4.801,2.509,4.801,5.269
			c0,2.094-1.217,3.885-2.97,4.754v15.53h1.041v-15.53c1.755-0.869,2.972-2.66,2.972-4.754
			C76.395,63.518,74.011,61.133,71.073,61.133z"/>
	</g>
</g>
</svg>
