<?xml version="1.0" encoding="utf-8"?>
<!-- Generator: Adobe Illustrator 16.0.0, SVG Export Plug-In . SVG Version: 6.00 Build 0)  -->
<!DOCTYPE svg PUBLIC "-//W3C//DTD SVG 1.1//EN" "http://www.w3.org/Graphics/SVG/1.1/DTD/svg11.dtd">
<svg version="1.1" id="Layer_1" xmlns="http://www.w3.org/2000/svg" xmlns:xlink="http://www.w3.org/1999/xlink" x="0px" y="0px"
	 width="128px" height="128px" viewBox="0 0 128 128" enable-background="new 0 0 128 128" xml:space="preserve">
<g>
	<path fill="#D4D4D4" stroke="#5C6466" stroke-width="2" stroke-miterlimit="10" d="M11.764,15.676c0-2.288,1.855-4.143,4.143-4.143
		h96.188c2.287,0,4.142,1.854,4.142,4.143v96.648c0,2.288-1.854,4.143-4.142,4.143H15.907c-2.288,0-4.143-1.854-4.143-4.143V15.676z
		"/>
</g>
<path fill="none" stroke="#D4D4D4" stroke-width="2" stroke-miterlimit="10" d="M13.094,16.906c0-2.229,1.809-4.037,4.037-4.037
	h93.738c2.23,0,4.037,1.808,4.037,4.037v94.186c0,2.23-1.807,4.039-4.037,4.039H17.131c-2.229,0-4.037-1.809-4.037-4.039V16.906z"/>
<radialGradient id="SVGID_1_" cx="64" cy="64" r="50.4" gradientUnits="userSpaceOnUse">
	<stop  offset="0" style="stop-color:#FAFBFB"/>
	<stop  offset="0.54" style="stop-color:#D4D4D4"/>
	<stop  offset="0.6941" style="stop-color:#C9C9C9"/>
	<stop  offset="0.975" style="stop-color:#ACACAE"/>
</radialGradient>
<radialGradient id="SVGID_2_" cx="64" cy="64" r="50.9" gradientUnits="userSpaceOnUse">
	<stop  offset="0.045" style="stop-color:#FAFBFB"/>
	<stop  offset="0.159" style="stop-color:#F0F0EF"/>
	<stop  offset="0.343" style="stop-color:#D9D9D8"/>
	<stop  offset="0.375" style="stop-color:#D4D4D4"/>
	<stop  offset="0.5586" style="stop-color:#D2D2D2"/>
	<stop  offset="0.6301" style="stop-color:#CCCCCC"/>
	<stop  offset="0.6821" style="stop-color:#C2C2C2"/>
	<stop  offset="0.7243" style="stop-color:#B3B3B5"/>
	<stop  offset="0.74" style="stop-color:#ACACAE"/>
</radialGradient>
<path fill="url(#SVGID_1_)" stroke="url(#SVGID_2_)" stroke-miterlimit="10" d="M13.711,17.477c0-2.202,1.786-3.987,3.988-3.987
	h92.602c2.203,0,3.988,1.785,3.988,3.987v93.045c0,2.203-1.785,3.989-3.988,3.989H17.699c-2.203,0-3.988-1.786-3.988-3.989V17.477z"
	/>
<g>
	<path fill="#232323" d="M93.356,48.054c0.227-0.651,0.18-1.367-0.129-1.984L82.941,25.447c-0.435-0.871-1.323-1.422-2.297-1.422
		H47.355c-0.973,0-1.863,0.551-2.297,1.422L34.772,46.069c-0.308,0.617-0.354,1.333-0.129,1.984
		c0.226,0.652,0.704,1.187,1.328,1.481l3.503,1.658l-3.349,1.934c-0.794,0.458-1.284,1.306-1.284,2.223v30.705
		c0,0.918,0.49,1.766,1.284,2.223l26.591,15.352c0.397,0.23,0.84,0.346,1.284,0.346c0.443,0,0.886-0.115,1.283-0.346l26.592-15.352
		c0.794-0.457,1.283-1.305,1.283-2.223V55.35c0-0.917-0.489-1.765-1.283-2.223l-3.349-1.934l3.503-1.658
		C92.653,49.24,93.132,48.706,93.356,48.054z M64,98.443L39.976,84.572V59.696l22.741,13.13c0.397,0.229,0.84,0.344,1.284,0.344
		c0.443,0,0.886-0.115,1.283-0.344l22.741-13.13v24.876L64,98.443z M85.37,55.3L64,67.639L42.629,55.3l2.487-1.437l17.785,8.417
		c0.348,0.164,0.723,0.247,1.098,0.247s0.751-0.083,1.098-0.247l17.785-8.417L85.37,55.3z M50.523,50.742L64,42.962l13.478,7.78
		L64,57.12L50.523,50.742z M65.283,37.774c-0.794-0.459-1.773-0.459-2.567,0L44.88,48.071l-4.344-2.056l8.408-16.855h30.113
		l8.407,16.855l-4.345,2.056L65.283,37.774z"/>
	<g>
		<polygon fill="#232323" points="66.451,83.74 67.966,79.078 64,76.197 60.034,79.078 61.549,83.74 62.023,83.74 60.056,91.246 
			67.943,91.246 65.977,83.74 		"/>
	</g>
</g>
</svg>
