<?xml version="1.0" encoding="UTF-8" standalone="no"?>
<!-- Generator: Adobe Illustrator 16.0.0, SVG Export Plug-In . SVG Version: 6.00 Build 0)  -->

<svg
   xmlns:dc="http://purl.org/dc/elements/1.1/"
   xmlns:cc="http://creativecommons.org/ns#"
   xmlns:rdf="http://www.w3.org/1999/02/22-rdf-syntax-ns#"
   xmlns:svg="http://www.w3.org/2000/svg"
   xmlns="http://www.w3.org/2000/svg"
   xmlns:sodipodi="http://sodipodi.sourceforge.net/DTD/sodipodi-0.dtd"
   xmlns:inkscape="http://www.inkscape.org/namespaces/inkscape"
   version="1.1"
   id="Layer_1"
   x="0px"
   y="0px"
   width="16"
   height="16"
   viewBox="0 0 16 16"
   enable-background="new 0 0 128 128"
   xml:space="preserve"
   sodipodi:docname="icon.svg"
   inkscape:version="0.92.3 (2405546, 2018-03-11)"><metadata
   id="metadata51"><rdf:RDF><cc:Work
       rdf:about=""><dc:format>image/svg+xml</dc:format><dc:type
         rdf:resource="http://purl.org/dc/dcmitype/StillImage" /><dc:title></dc:title></cc:Work></rdf:RDF></metadata><defs
   id="defs49" /><sodipodi:namedview
   pagecolor="#ffffff"
   bordercolor="#666666"
   borderopacity="1"
   objecttolerance="10"
   gridtolerance="10"
   guidetolerance="10"
   inkscape:pageopacity="0"
   inkscape:pageshadow="2"
   inkscape:window-width="3200"
   inkscape:window-height="1674"
   id="namedview47"
   showgrid="false"
   inkscape:zoom="4.04"
   inkscape:cx="-72.135593"
   inkscape:cy="144"
   inkscape:window-x="0"
   inkscape:window-y="60"
   inkscape:window-maximized="1"
   inkscape:current-layer="Layer_1" />
<g
   id="g4"
   transform="matrix(0.125,0,0,0.125,-6.25e-5,0)">
	<path
   stroke-miterlimit="10"
   d="m 11.764,15.676 c 0,-2.288 1.855,-4.143 4.143,-4.143 h 96.188 c 2.287,0 4.142,1.854 4.142,4.143 v 96.648 c 0,2.288 -1.854,4.143 -4.142,4.143 H 15.907 c -2.288,0 -4.143,-1.854 -4.143,-4.143 z"
   id="path2"
   inkscape:connector-curvature="0"
   style="fill:#d4d4d4;stroke:#5c6466;stroke-width:2;stroke-miterlimit:10" />
</g>
<path
   stroke-miterlimit="10"
   d="m 1.6367505,2.11325 c 0,-0.278625 0.226124,-0.504625 0.504624,-0.504625 H 13.858624 c 0.27875,0 0.504625,0.226 0.504625,0.504625 V 13.8865 c 0,0.27875 -0.225875,0.504875 -0.504625,0.504875 H 2.1413745 c -0.278624,0 -0.504624,-0.226125 -0.504624,-0.504875 z"
   id="path6"
   inkscape:connector-curvature="0"
   style="fill:none;stroke:#d4d4d4;stroke-width:0.25;stroke-miterlimit:10" />
<radialGradient
   id="SVGID_1_"
   cx="64"
   cy="64"
   r="50.400002"
   gradientUnits="userSpaceOnUse"
   gradientTransform="matrix(0.125,0,0,0.125,0,-6.25e-5)">
	<stop
   offset="0"
   style="stop-color:#FAFBFB"
   id="stop8" />
	<stop
   offset="0.54"
   style="stop-color:#D4D4D4"
   id="stop10" />
	<stop
   offset="0.6941"
   style="stop-color:#C9C9C9"
   id="stop12" />
	<stop
   offset="0.975"
   style="stop-color:#ACACAE"
   id="stop14" />
</radialGradient>
<radialGradient
   id="SVGID_2_"
   cx="64"
   cy="64"
   r="50.900002"
   gradientUnits="userSpaceOnUse"
   gradientTransform="matrix(0.125,0,0,0.125,0,-6.25e-5)">
	<stop
   offset="0.045"
   style="stop-color:#FAFBFB"
   id="stop17" />
	<stop
   offset="0.159"
   style="stop-color:#F0F0EF"
   id="stop19" />
	<stop
   offset="0.343"
   style="stop-color:#D9D9D8"
   id="stop21" />
	<stop
   offset="0.375"
   style="stop-color:#D4D4D4"
   id="stop23" />
	<stop
   offset="0.5586"
   style="stop-color:#D2D2D2"
   id="stop25" />
	<stop
   offset="0.6301"
   style="stop-color:#CCCCCC"
   id="stop27" />
	<stop
   offset="0.6821"
   style="stop-color:#C2C2C2"
   id="stop29" />
	<stop
   offset="0.7243"
   style="stop-color:#B3B3B5"
   id="stop31" />
	<stop
   offset="0.74"
   style="stop-color:#ACACAE"
   id="stop33" />
</radialGradient>
<path
   stroke-miterlimit="10"
   d="m 1.713875,2.1845625 c 0,-0.27525 0.22325,-0.498375 0.4985,-0.498375 h 11.575249 c 0.275375,0 0.498501,0.223125 0.498501,0.498375 V 13.815188 c 0,0.275375 -0.223126,0.498625 -0.498501,0.498625 H 2.212375 c -0.275375,0 -0.4985,-0.22325 -0.4985,-0.498625 z"
   id="path36"
   inkscape:connector-curvature="0"
   style="fill:url(#SVGID_1_);stroke:url(#SVGID_2_);stroke-width:0.125;stroke-miterlimit:10" />
<g
   id="g44"
   transform="matrix(0.125,0,0,0.125,-9.6618818e-6,0)">
	<path
   d="m 93.356,48.054 c 0.227,-0.651 0.18,-1.367 -0.129,-1.984 L 82.941,25.447 C 82.506,24.576 81.618,24.025 80.644,24.025 H 47.355 c -0.973,0 -1.863,0.551 -2.297,1.422 L 34.772,46.069 c -0.308,0.617 -0.354,1.333 -0.129,1.984 0.226,0.652 0.704,1.187 1.328,1.481 l 3.503,1.658 -3.349,1.934 c -0.794,0.458 -1.284,1.306 -1.284,2.223 v 30.705 c 0,0.918 0.49,1.766 1.284,2.223 l 26.591,15.352 c 0.397,0.23 0.84,0.346 1.284,0.346 0.443,0 0.886,-0.115 1.283,-0.346 L 91.875,88.277 c 0.794,-0.457 1.283,-1.305 1.283,-2.223 V 55.35 c 0,-0.917 -0.489,-1.765 -1.283,-2.223 l -3.349,-1.934 3.503,-1.658 c 0.624,-0.295 1.103,-0.829 1.327,-1.481 z M 64,98.443 39.976,84.572 V 59.696 l 22.741,13.13 c 0.397,0.229 0.84,0.344 1.284,0.344 0.443,0 0.886,-0.115 1.283,-0.344 L 88.025,59.696 V 84.572 Z M 85.37,55.3 64,67.639 42.629,55.3 45.116,53.863 62.901,62.28 c 0.348,0.164 0.723,0.247 1.098,0.247 0.375,0 0.751,-0.083 1.098,-0.247 L 82.882,53.863 Z M 50.523,50.742 64,42.962 77.478,50.742 64,57.12 Z m 14.76,-12.968 c -0.794,-0.459 -1.773,-0.459 -2.567,0 L 44.88,48.071 40.536,46.015 48.944,29.16 h 30.113 l 8.407,16.855 -4.345,2.056 z"
   id="path38"
   inkscape:connector-curvature="0"
   style="fill:#232323" />
	<g
   id="g42">
		<polygon
   points="67.943,91.246 65.977,83.74 66.451,83.74 67.966,79.078 64,76.197 60.034,79.078 61.549,83.74 62.023,83.74 60.056,91.246 "
   id="polygon40"
   style="fill:#232323" />
	</g>
</g>
</svg>